# xmcd
# 
# Track frame offsets:
#     150
#     17945
#     37427
#     48307
#     65132
#     76242
#     90177
#     107570
#     120437
#     137575
#     151990
#     165065
#     180700
#     195607
#     208942
#     226250
#     238582
#     254942
#     269745
#     286180
# 
# Disc length: 4006
# 
# Revision: 6
# Processed by: cddbd v1.5.2PL0 Copyright (c) Steve Scherf et al.
# Submitted via: fre:ac v1.1beta1pre3
# 
DISCID=1a0fa414
DTITLE=Alan Jackson - The Greatest Hits Collection
DYEAR=1995
DGENRE=Country
TTITLE0=Chattahoochee ( Extended Mix )
TTITLE1=Gone Country
TTITLE2=She's Got the Rhythm ( And I Got the Blues )
TTITLE3=Midnight in Montgomery
TTITLE4=Tall, Tall Trees
TTITLE5=Chasin' That Neon Rainbow
TTITLE6=I'll Try
TTITLE7=Don't Rock the Jukebox
TTITLE8=Livin' on Love
TTITLE9=Summertime Blues
TTITLE10=Love's Got a Hold on You
TTITLE11=( Who Says ) You Can't Have It All
TTITLE12=Home
TTITLE13=Wanted
TTITLE14=I Don't Even Know Your Name
TTITLE15=Dallas
TTITLE16=Here in the Real World
TTITLE17=Someday
TTITLE18=Mercury Blues
TTITLE19=I'd Love You All Over Again
EXTD=
EXTT0=
EXTT1=
EXTT2=
EXTT3=
EXTT4=
EXTT5=
EXTT6=
EXTT7=
EXTT8=
EXTT9=
EXTT10=
EXTT11=
EXTT12=
EXTT13=
EXTT14=
EXTT15=
EXTT16=
EXTT17=
EXTT18=
EXTT19=
PLAYORDER=
